<mxfile host="app.diagrams.net" modified="2023-05-10T02:50:03.225Z" agent="Mozilla/5.0 (Windows NT 10.0; Win64; x64) AppleWebKit/537.36 (KHTML, like Gecko) Chrome/112.0.0.0 Safari/537.36" etag="khCbYYnwV5oFzZL-ebLO" version="21.2.7" type="device">
  <diagram name="Page-1" id="82e54ff1-d628-8f03-85c4-9753963a91cd">
    <mxGraphModel dx="1143" dy="928" grid="1" gridSize="10" guides="1" tooltips="1" connect="1" arrows="1" fold="1" page="1" pageScale="1" pageWidth="1169" pageHeight="827" background="none" math="0" shadow="0">
      <root>
        <mxCell id="0" />
        <mxCell id="1" parent="0" />
        <mxCell id="4ec97bd9e5d20128-1" value="" style="line;strokeWidth=2;html=1;fillColor=none;fontSize=28;fontColor=#004D99;strokeColor=#004D99;" parent="1" vertex="1">
          <mxGeometry x="30" y="370" width="1000" height="10" as="geometry" />
        </mxCell>
        <mxCell id="4ec97bd9e5d20128-5" value="정보수집내용" style="shape=offPageConnector;whiteSpace=wrap;html=1;fillColor=#0075E8;fontSize=15;fontColor=#FFFFFF;size=0.5093750000000015;verticalAlign=top;strokeColor=none;" parent="1" vertex="1">
          <mxGeometry x="110" y="310" width="160" height="40" as="geometry" />
        </mxCell>
        <mxCell id="4ec97bd9e5d20128-6" value="요구사항" style="shape=offPageConnector;whiteSpace=wrap;html=1;fillColor=#0075E8;fontSize=15;fontColor=#FFFFFF;size=0.5093750000000015;verticalAlign=top;strokeColor=none;" parent="1" vertex="1">
          <mxGeometry x="563" y="310" width="160" height="40" as="geometry" />
        </mxCell>
        <mxCell id="4ec97bd9e5d20128-7" value="시나리오" style="shape=offPageConnector;whiteSpace=wrap;html=1;fillColor=#0075E8;fontSize=15;fontColor=#FFFFFF;size=0.4178571428571445;flipV=1;verticalAlign=bottom;strokeColor=none;spacingBottom=4;" parent="1" vertex="1">
          <mxGeometry x="337" y="395" width="160" height="35" as="geometry" />
        </mxCell>
        <mxCell id="z8SM-cveNV6kDbXJa2zM-75" style="edgeStyle=orthogonalEdgeStyle;rounded=0;orthogonalLoop=1;jettySize=auto;html=1;entryX=1;entryY=0.5;entryDx=0;entryDy=0;" edge="1" parent="1" source="4ec97bd9e5d20128-8" target="4ec97bd9e5d20128-18">
          <mxGeometry relative="1" as="geometry">
            <Array as="points">
              <mxPoint x="870" y="450" />
              <mxPoint x="1130" y="450" />
              <mxPoint x="1130" y="1700" />
            </Array>
          </mxGeometry>
        </mxCell>
        <mxCell id="z8SM-cveNV6kDbXJa2zM-76" style="edgeStyle=orthogonalEdgeStyle;rounded=0;orthogonalLoop=1;jettySize=auto;html=1;" edge="1" parent="1" source="4ec97bd9e5d20128-8">
          <mxGeometry relative="1" as="geometry">
            <mxPoint x="880" y="450" as="targetPoint" />
          </mxGeometry>
        </mxCell>
        <mxCell id="4ec97bd9e5d20128-8" value="요구사항 설명" style="shape=offPageConnector;whiteSpace=wrap;html=1;fillColor=#0075E8;fontSize=15;fontColor=#FFFFFF;size=0.4178571428571445;flipV=1;verticalAlign=bottom;strokeColor=none;spacingBottom=4;" parent="1" vertex="1">
          <mxGeometry x="790" y="395" width="160" height="35" as="geometry" />
        </mxCell>
        <mxCell id="4ec97bd9e5d20128-9" value="" style="ellipse;whiteSpace=wrap;html=1;fillColor=#61BAFF;fontSize=28;fontColor=#004D99;strokeWidth=3;strokeColor=#004D99;" parent="1" vertex="1">
          <mxGeometry x="180" y="365" width="20" height="20" as="geometry" />
        </mxCell>
        <mxCell id="4ec97bd9e5d20128-10" value="" style="ellipse;whiteSpace=wrap;html=1;fillColor=#61BAFF;fontSize=28;fontColor=#004D99;strokeWidth=3;strokeColor=#004D99;" parent="1" vertex="1">
          <mxGeometry x="407" y="365" width="20" height="20" as="geometry" />
        </mxCell>
        <mxCell id="4ec97bd9e5d20128-11" value="" style="ellipse;whiteSpace=wrap;html=1;fillColor=#61BAFF;fontSize=28;fontColor=#004D99;strokeWidth=3;strokeColor=#004D99;" parent="1" vertex="1">
          <mxGeometry x="633" y="365" width="20" height="20" as="geometry" />
        </mxCell>
        <mxCell id="4ec97bd9e5d20128-13" value="" style="ellipse;whiteSpace=wrap;html=1;fillColor=#61BAFF;fontSize=28;fontColor=#004D99;strokeWidth=3;strokeColor=#004D99;" parent="1" vertex="1">
          <mxGeometry x="860" y="365" width="20" height="20" as="geometry" />
        </mxCell>
        <mxCell id="4ec97bd9e5d20128-14" value="&lt;h1&gt;비즈니스 목적&lt;/h1&gt;&lt;p&gt;고객은 무수히 많은 키를 가지고&amp;nbsp;&lt;/p&gt;&lt;p&gt;있는 비트 코인 부자이다 키를 가지고 비트 코인 자료 관리를 수월하게 하고 싶어 한다.&lt;/p&gt;" style="text;html=1;spacing=5;spacingTop=-20;whiteSpace=wrap;overflow=hidden;strokeColor=none;strokeWidth=3;fillColor=#E6E6E6;fontSize=13;fontColor=#000000;align=center;rounded=1;" parent="1" vertex="1">
          <mxGeometry x="83" y="400" width="215" height="130" as="geometry" />
        </mxCell>
        <mxCell id="4ec97bd9e5d20128-16" value="&lt;h1&gt;시나리오&lt;/h1&gt;&lt;p&gt;고객은 무수히 많은 열쇠를 가지고 있다. 이 열쇠는 열쇠마다 특징이 명확하며 상이하다. 이 열쇠에 특징들을 통해 고객은 각각에 열쇠로만 열 수 있는 비트 코인을 담을 상자를 만들어 관리 하고 싶어 한다.&amp;nbsp;&lt;/p&gt;" style="text;html=1;spacing=5;spacingTop=-20;whiteSpace=wrap;overflow=hidden;strokeColor=none;strokeWidth=3;fillColor=#E6E6E6;fontSize=13;fontColor=#000000;align=center;rounded=1;" parent="1" vertex="1">
          <mxGeometry x="309" y="180" width="215" height="160" as="geometry" />
        </mxCell>
        <mxCell id="4ec97bd9e5d20128-18" value="&lt;h1 style=&quot;&quot;&gt;안녕하세요! 고객님이 원하시는 요구사항에 대한 설명을 드리겠습니다.&lt;/h1&gt;&lt;h1 style=&quot;&quot;&gt;&lt;span style=&quot;font-size: 14px;&quot;&gt;우선, 우리가 개발힌 &quot;비트 코인 박스&quot;는 고객의 열쇠를 관리하기 위한 도구입니다. 각각의 열쇠는 고유한 특징을 가지고 있기 때문에, 이 &quot;박스&quot;는 고객이 열쇠의 특징들을 이용하여 각각의 열쇠로만 열 수 있는 상자를 만들 수 있도록 도와줍니다.&lt;/span&gt;&lt;/h1&gt;&lt;h1 style=&quot;&quot;&gt;&lt;span style=&quot;font-size: 14px;&quot;&gt;요구사항 중에서 가장 먼저 개발해야 하는 기능은 &quot;put&quot;입니다. 이 기능은 열쇠를 상자에 담는 기능으로, 열쇠의 특징들을 이용하여 새로운 상자를 만들 수 있습니다.&lt;/span&gt;&lt;/h1&gt;&lt;h1 style=&quot;&quot;&gt;&lt;span style=&quot;font-size: 14px;&quot;&gt;그 다음으로는 &quot;toString&quot; 기능입니다. 이 기능은 상자 안에 어떤 열쇠들이 있는지 전체적으로 확인할 수 있는 기능입니다. 이는 상자 안에 어떤 열쇠들이 있는지 빠르게 파악하기 위해서는 매우 유용한 기능입니다.&lt;/span&gt;&lt;/h1&gt;&lt;h1 style=&quot;&quot;&gt;&lt;span style=&quot;font-size: 14px;&quot;&gt;그 다음으로는 &quot;get&quot; 기능입니다. 이 기능은 전체적으로 상자 안에 어떤 열쇠들이 있는지 확인한 후, 개별적으로 각각의 열쇠들을 확인하는 기능입니다. 이를 통해 고객은 각각의 열쇠들이 올바른 상자에 있는지 확인할 수 있습니다.&lt;/span&gt;&lt;/h1&gt;&lt;h1 style=&quot;&quot;&gt;&lt;span style=&quot;font-size: 14px;&quot;&gt;마지막으로는 &quot;remove&quot; 기능입니다. 이 기능은 상자 안에 있는 열쇠를 삭제하는 기능으로, 테스트에 유리한 순서로 개발되어야 합니다.&lt;/span&gt;&lt;/h1&gt;&lt;h1 style=&quot;&quot;&gt;&lt;span style=&quot;font-size: 14px;&quot;&gt;따라서, 요구사항의 개발 우선순위는 put -&amp;gt; toString -&amp;gt; get -&amp;gt; remove 순으로 진행되어야 합니다. 이렇게 개발된 &quot;박스&quot;는 고객님의 열쇠를 효과적으로 관리할 수 있도록 도와줄 것입니다.&lt;/span&gt;&lt;/h1&gt;" style="text;html=1;spacing=5;spacingTop=-20;whiteSpace=wrap;overflow=hidden;strokeColor=none;strokeWidth=3;fillColor=#E6E6E6;fontSize=13;fontColor=#000000;align=center;rounded=1;" parent="1" vertex="1">
          <mxGeometry x="437" y="1340" width="660" height="720" as="geometry" />
        </mxCell>
        <mxCell id="z8SM-cveNV6kDbXJa2zM-2" value="&lt;h1&gt;도메인 지식&lt;/h1&gt;&lt;div&gt;고객은 java파일을 보고 사용할 수 있는 전반적인 지식이 있다. 따라서 java로 프로그래밍을 수행한다.&lt;/div&gt;&lt;p&gt;&lt;br&gt;&lt;/p&gt;" style="text;html=1;spacing=5;spacingTop=-20;whiteSpace=wrap;overflow=hidden;strokeColor=none;strokeWidth=3;fillColor=#E6E6E6;fontSize=13;fontColor=#000000;align=center;rounded=1;" vertex="1" parent="1">
          <mxGeometry x="79" y="550" width="215" height="130" as="geometry" />
        </mxCell>
        <mxCell id="z8SM-cveNV6kDbXJa2zM-3" value="&lt;h1&gt;비즈니스 규칙&lt;/h1&gt;&lt;div&gt;개발자에 독단적인 개발을 지향하고 고객에 요구 사항에 부합하게 개발을 해야 한다.&lt;/div&gt;&lt;div&gt;고객은 객체 지향 개발을 원한다.&amp;nbsp;&lt;/div&gt;&lt;p&gt;&lt;br&gt;&lt;/p&gt;" style="text;html=1;spacing=5;spacingTop=-20;whiteSpace=wrap;overflow=hidden;strokeColor=none;strokeWidth=3;fillColor=#E6E6E6;fontSize=13;fontColor=#000000;align=center;rounded=1;" vertex="1" parent="1">
          <mxGeometry x="80" y="698" width="215" height="130" as="geometry" />
        </mxCell>
        <mxCell id="z8SM-cveNV6kDbXJa2zM-6" value="&lt;h1&gt;조직 환경&lt;/h1&gt;&lt;div&gt;&lt;span style=&quot;background-color: initial;&quot;&gt;일을 할 때에 편안한 환경을 중요하게 생각하며 요구 사항을 충족하기 위해 개발자와 고객 간의 소통을 중요하게 생각한다.&amp;nbsp; &amp;nbsp;&amp;nbsp;&lt;/span&gt;&lt;/div&gt;&lt;p&gt;&lt;br&gt;&lt;/p&gt;" style="text;html=1;spacing=5;spacingTop=-20;whiteSpace=wrap;overflow=hidden;strokeColor=none;strokeWidth=3;fillColor=#E6E6E6;fontSize=13;fontColor=#000000;align=center;rounded=1;" vertex="1" parent="1">
          <mxGeometry x="78" y="846" width="215" height="130" as="geometry" />
        </mxCell>
        <mxCell id="z8SM-cveNV6kDbXJa2zM-9" style="edgeStyle=orthogonalEdgeStyle;rounded=0;orthogonalLoop=1;jettySize=auto;html=1;exitX=0.5;exitY=1;exitDx=0;exitDy=0;" edge="1" parent="1" source="4ec97bd9e5d20128-11" target="z8SM-cveNV6kDbXJa2zM-8">
          <mxGeometry relative="1" as="geometry">
            <mxPoint x="650" y="440" as="sourcePoint" />
            <Array as="points">
              <mxPoint x="650" y="385" />
              <mxPoint x="650" y="400" />
              <mxPoint x="640" y="400" />
              <mxPoint x="640" y="530" />
              <mxPoint x="720" y="530" />
            </Array>
          </mxGeometry>
        </mxCell>
        <mxCell id="z8SM-cveNV6kDbXJa2zM-8" value="&lt;h1&gt;요구사항&lt;/h1&gt;&lt;p&gt;출처:기획 담당자&lt;/p&gt;&lt;p&gt;요구 내용: 포트폴리오 작성을 요구&lt;/p&gt;&lt;p&gt;요구 일자:2023-05-09&lt;/p&gt;&lt;p&gt;&lt;br&gt;&lt;/p&gt;" style="text;html=1;spacing=5;spacingTop=-20;whiteSpace=wrap;overflow=hidden;strokeColor=none;strokeWidth=3;fillColor=#E6E6E6;fontSize=13;fontColor=#000000;align=center;rounded=1;" vertex="1" parent="1">
          <mxGeometry x="350" y="590" width="740" height="710" as="geometry" />
        </mxCell>
        <mxCell id="z8SM-cveNV6kDbXJa2zM-10" value="Actor" style="shape=umlActor;verticalLabelPosition=bottom;verticalAlign=top;html=1;outlineConnect=0;" vertex="1" parent="1">
          <mxGeometry x="370" y="828" width="67" height="102" as="geometry" />
        </mxCell>
        <mxCell id="z8SM-cveNV6kDbXJa2zM-11" value="" style="ellipse;whiteSpace=wrap;html=1;" vertex="1" parent="1">
          <mxGeometry x="480" y="750" width="250" height="450" as="geometry" />
        </mxCell>
        <mxCell id="z8SM-cveNV6kDbXJa2zM-12" value="박스에 담기&lt;br&gt;(put)" style="ellipse;whiteSpace=wrap;html=1;" vertex="1" parent="1">
          <mxGeometry x="535" y="790" width="135" height="70" as="geometry" />
        </mxCell>
        <mxCell id="z8SM-cveNV6kDbXJa2zM-13" value="박스 내용물 수정&lt;br&gt;(put)" style="ellipse;whiteSpace=wrap;html=1;" vertex="1" parent="1">
          <mxGeometry x="533" y="860" width="137" height="70" as="geometry" />
        </mxCell>
        <mxCell id="z8SM-cveNV6kDbXJa2zM-14" value="박스 내용물 비우기&lt;br&gt;(remove)" style="ellipse;whiteSpace=wrap;html=1;" vertex="1" parent="1">
          <mxGeometry x="531.5" y="930" width="138.5" height="70" as="geometry" />
        </mxCell>
        <mxCell id="z8SM-cveNV6kDbXJa2zM-15" value="한개의 박스 내용물 조회&lt;br&gt;(get)" style="ellipse;whiteSpace=wrap;html=1;" vertex="1" parent="1">
          <mxGeometry x="533" y="1000" width="137" height="70" as="geometry" />
        </mxCell>
        <mxCell id="z8SM-cveNV6kDbXJa2zM-18" value="" style="endArrow=classic;html=1;rounded=0;exitX=1;exitY=0.3333333333333333;exitDx=0;exitDy=0;exitPerimeter=0;" edge="1" parent="1" source="z8SM-cveNV6kDbXJa2zM-10">
          <mxGeometry width="50" height="50" relative="1" as="geometry">
            <mxPoint x="520" y="870" as="sourcePoint" />
            <mxPoint x="540" y="830" as="targetPoint" />
          </mxGeometry>
        </mxCell>
        <mxCell id="z8SM-cveNV6kDbXJa2zM-19" value="" style="endArrow=classic;html=1;rounded=0;exitX=1;exitY=0.3333333333333333;exitDx=0;exitDy=0;exitPerimeter=0;" edge="1" parent="1" source="z8SM-cveNV6kDbXJa2zM-10">
          <mxGeometry width="50" height="50" relative="1" as="geometry">
            <mxPoint x="432" y="927" as="sourcePoint" />
            <mxPoint x="535" y="895" as="targetPoint" />
          </mxGeometry>
        </mxCell>
        <mxCell id="z8SM-cveNV6kDbXJa2zM-20" value="" style="endArrow=classic;html=1;rounded=0;exitX=1;exitY=0.3333333333333333;exitDx=0;exitDy=0;exitPerimeter=0;" edge="1" parent="1" source="z8SM-cveNV6kDbXJa2zM-10">
          <mxGeometry width="50" height="50" relative="1" as="geometry">
            <mxPoint x="432" y="1000" as="sourcePoint" />
            <mxPoint x="535" y="968" as="targetPoint" />
          </mxGeometry>
        </mxCell>
        <mxCell id="z8SM-cveNV6kDbXJa2zM-21" value="" style="endArrow=classic;html=1;rounded=0;exitX=1;exitY=0.3333333333333333;exitDx=0;exitDy=0;exitPerimeter=0;" edge="1" parent="1" source="z8SM-cveNV6kDbXJa2zM-10">
          <mxGeometry width="50" height="50" relative="1" as="geometry">
            <mxPoint x="432" y="1062" as="sourcePoint" />
            <mxPoint x="535" y="1030" as="targetPoint" />
          </mxGeometry>
        </mxCell>
        <mxCell id="z8SM-cveNV6kDbXJa2zM-23" value="전체 박스 내용물 조회&lt;br&gt;(toString)" style="ellipse;whiteSpace=wrap;html=1;" vertex="1" parent="1">
          <mxGeometry x="533" y="1070" width="137" height="70" as="geometry" />
        </mxCell>
        <mxCell id="z8SM-cveNV6kDbXJa2zM-24" value="열쇠로 관리하는 박스(Map3)" style="swimlane;" vertex="1" parent="1">
          <mxGeometry x="763" y="770" width="200" height="60" as="geometry" />
        </mxCell>
        <mxCell id="z8SM-cveNV6kDbXJa2zM-25" value="박스: ArrayList3" style="text;html=1;strokeColor=none;fillColor=none;align=center;verticalAlign=middle;whiteSpace=wrap;rounded=0;" vertex="1" parent="z8SM-cveNV6kDbXJa2zM-24">
          <mxGeometry x="-23" y="27" width="177" height="30" as="geometry" />
        </mxCell>
        <mxCell id="z8SM-cveNV6kDbXJa2zM-29" value="" style="edgeStyle=orthogonalEdgeStyle;rounded=0;orthogonalLoop=1;jettySize=auto;html=1;exitX=0.5;exitY=0;exitDx=0;exitDy=0;" edge="1" parent="1" source="z8SM-cveNV6kDbXJa2zM-30" target="z8SM-cveNV6kDbXJa2zM-25">
          <mxGeometry relative="1" as="geometry">
            <mxPoint x="863" y="860" as="sourcePoint" />
          </mxGeometry>
        </mxCell>
        <mxCell id="z8SM-cveNV6kDbXJa2zM-30" value="메소드" style="swimlane;fontStyle=0;childLayout=stackLayout;horizontal=1;startSize=30;horizontalStack=0;resizeParent=1;resizeParentMax=0;resizeLast=0;collapsible=1;marginBottom=0;whiteSpace=wrap;html=1;" vertex="1" parent="1">
          <mxGeometry x="790" y="870" width="260" height="150" as="geometry" />
        </mxCell>
        <mxCell id="z8SM-cveNV6kDbXJa2zM-31" value="V put (박스에 담기,수정)&lt;br&gt;" style="text;strokeColor=none;fillColor=none;align=left;verticalAlign=middle;spacingLeft=4;spacingRight=4;overflow=hidden;points=[[0,0.5],[1,0.5]];portConstraint=eastwest;rotatable=0;whiteSpace=wrap;html=1;" vertex="1" parent="z8SM-cveNV6kDbXJa2zM-30">
          <mxGeometry y="30" width="260" height="30" as="geometry" />
        </mxCell>
        <mxCell id="z8SM-cveNV6kDbXJa2zM-32" value="V get (한 개의 박스 내용물 가져오기 )" style="text;strokeColor=none;fillColor=none;align=left;verticalAlign=middle;spacingLeft=4;spacingRight=4;overflow=hidden;points=[[0,0.5],[1,0.5]];portConstraint=eastwest;rotatable=0;whiteSpace=wrap;html=1;" vertex="1" parent="z8SM-cveNV6kDbXJa2zM-30">
          <mxGeometry y="60" width="260" height="20" as="geometry" />
        </mxCell>
        <mxCell id="z8SM-cveNV6kDbXJa2zM-33" value="&lt;br&gt;V toString (전체 박스 내용물 가져오기)&lt;br&gt;&lt;br&gt;V remove(박스 내용물 비우기)&lt;br&gt;" style="text;strokeColor=none;fillColor=none;align=left;verticalAlign=middle;spacingLeft=4;spacingRight=4;overflow=hidden;points=[[0,0.5],[1,0.5]];portConstraint=eastwest;rotatable=0;whiteSpace=wrap;html=1;" vertex="1" parent="z8SM-cveNV6kDbXJa2zM-30">
          <mxGeometry y="80" width="260" height="70" as="geometry" />
        </mxCell>
        <mxCell id="z8SM-cveNV6kDbXJa2zM-61" value="개발 우선 순위" style="shape=table;startSize=30;container=1;collapsible=0;childLayout=tableLayout;fixedRows=1;rowLines=0;fontStyle=0;strokeColor=default;fontSize=16;" vertex="1" parent="1">
          <mxGeometry x="740" y="1040" width="340" height="170" as="geometry" />
        </mxCell>
        <mxCell id="z8SM-cveNV6kDbXJa2zM-62" value="" style="shape=tableRow;horizontal=0;startSize=0;swimlaneHead=0;swimlaneBody=0;top=0;left=0;bottom=0;right=0;collapsible=0;dropTarget=0;fillColor=none;points=[[0,0.5],[1,0.5]];portConstraint=eastwest;strokeColor=inherit;fontSize=16;" vertex="1" parent="z8SM-cveNV6kDbXJa2zM-61">
          <mxGeometry y="30" width="340" height="30" as="geometry" />
        </mxCell>
        <mxCell id="z8SM-cveNV6kDbXJa2zM-63" value="1" style="shape=partialRectangle;html=1;whiteSpace=wrap;connectable=0;fillColor=none;top=0;left=0;bottom=0;right=0;overflow=hidden;pointerEvents=1;strokeColor=inherit;fontSize=16;" vertex="1" parent="z8SM-cveNV6kDbXJa2zM-62">
          <mxGeometry width="75" height="30" as="geometry">
            <mxRectangle width="75" height="30" as="alternateBounds" />
          </mxGeometry>
        </mxCell>
        <mxCell id="z8SM-cveNV6kDbXJa2zM-64" value="&lt;font style=&quot;font-size: 13px;&quot;&gt;&lt;b&gt;put(상자에 먼저 &lt;font style=&quot;font-size: 13px;&quot;&gt;담아야 확인이 가능하다&amp;nbsp;&lt;/font&gt;)&lt;/b&gt;&lt;/font&gt;" style="shape=partialRectangle;html=1;whiteSpace=wrap;connectable=0;fillColor=none;top=0;left=0;bottom=0;right=0;align=left;spacingLeft=6;overflow=hidden;strokeColor=inherit;fontSize=16;" vertex="1" parent="z8SM-cveNV6kDbXJa2zM-62">
          <mxGeometry x="75" width="265" height="30" as="geometry">
            <mxRectangle width="265" height="30" as="alternateBounds" />
          </mxGeometry>
        </mxCell>
        <mxCell id="z8SM-cveNV6kDbXJa2zM-65" value="" style="shape=tableRow;horizontal=0;startSize=0;swimlaneHead=0;swimlaneBody=0;top=0;left=0;bottom=0;right=0;collapsible=0;dropTarget=0;fillColor=none;points=[[0,0.5],[1,0.5]];portConstraint=eastwest;strokeColor=inherit;fontSize=16;" vertex="1" parent="z8SM-cveNV6kDbXJa2zM-61">
          <mxGeometry y="60" width="340" height="30" as="geometry" />
        </mxCell>
        <mxCell id="z8SM-cveNV6kDbXJa2zM-66" value="2" style="shape=partialRectangle;html=1;whiteSpace=wrap;connectable=0;fillColor=none;top=0;left=0;bottom=0;right=0;overflow=hidden;strokeColor=inherit;fontSize=16;" vertex="1" parent="z8SM-cveNV6kDbXJa2zM-65">
          <mxGeometry width="75" height="30" as="geometry">
            <mxRectangle width="75" height="30" as="alternateBounds" />
          </mxGeometry>
        </mxCell>
        <mxCell id="z8SM-cveNV6kDbXJa2zM-67" value="&lt;font style=&quot;font-size: 13px;&quot;&gt;&lt;b&gt;toString(먼저 전체적으로 확인하는게 좋다)&lt;/b&gt;&lt;/font&gt;" style="shape=partialRectangle;html=1;whiteSpace=wrap;connectable=0;fillColor=none;top=0;left=0;bottom=0;right=0;align=left;spacingLeft=6;overflow=hidden;strokeColor=inherit;fontSize=16;" vertex="1" parent="z8SM-cveNV6kDbXJa2zM-65">
          <mxGeometry x="75" width="265" height="30" as="geometry">
            <mxRectangle width="265" height="30" as="alternateBounds" />
          </mxGeometry>
        </mxCell>
        <mxCell id="z8SM-cveNV6kDbXJa2zM-68" value="" style="shape=tableRow;horizontal=0;startSize=0;swimlaneHead=0;swimlaneBody=0;top=0;left=0;bottom=0;right=0;collapsible=0;dropTarget=0;fillColor=none;points=[[0,0.5],[1,0.5]];portConstraint=eastwest;strokeColor=inherit;fontSize=16;" vertex="1" parent="z8SM-cveNV6kDbXJa2zM-61">
          <mxGeometry y="90" width="340" height="30" as="geometry" />
        </mxCell>
        <mxCell id="z8SM-cveNV6kDbXJa2zM-69" value="3" style="shape=partialRectangle;html=1;whiteSpace=wrap;connectable=0;fillColor=none;top=0;left=0;bottom=0;right=0;overflow=hidden;strokeColor=inherit;fontSize=16;" vertex="1" parent="z8SM-cveNV6kDbXJa2zM-68">
          <mxGeometry width="75" height="30" as="geometry">
            <mxRectangle width="75" height="30" as="alternateBounds" />
          </mxGeometry>
        </mxCell>
        <mxCell id="z8SM-cveNV6kDbXJa2zM-70" value="&lt;span style=&quot;font-size: 13px;&quot;&gt;&lt;b&gt;get(전체적으로 확인 후 개별 확인을 한다)&amp;nbsp;&amp;nbsp;&lt;/b&gt;&lt;/span&gt;" style="shape=partialRectangle;html=1;whiteSpace=wrap;connectable=0;fillColor=none;top=0;left=0;bottom=0;right=0;align=left;spacingLeft=6;overflow=hidden;strokeColor=inherit;fontSize=16;" vertex="1" parent="z8SM-cveNV6kDbXJa2zM-68">
          <mxGeometry x="75" width="265" height="30" as="geometry">
            <mxRectangle width="265" height="30" as="alternateBounds" />
          </mxGeometry>
        </mxCell>
        <mxCell id="z8SM-cveNV6kDbXJa2zM-71" value="4" style="shape=partialRectangle;html=1;whiteSpace=wrap;connectable=0;fillColor=none;top=0;left=0;bottom=0;right=0;overflow=hidden;strokeColor=inherit;fontSize=16;" vertex="1" parent="1">
          <mxGeometry x="756" y="1161" width="40" height="30" as="geometry">
            <mxRectangle width="40" height="30" as="alternateBounds" />
          </mxGeometry>
        </mxCell>
        <mxCell id="z8SM-cveNV6kDbXJa2zM-72" value="&lt;span style=&quot;font-size: 13px;&quot;&gt;&lt;b&gt;remove(삭제는 맨 마지막에 개발하는것이 테스트에 유리하다)&lt;/b&gt;&lt;/span&gt;" style="shape=partialRectangle;html=1;whiteSpace=wrap;connectable=0;fillColor=none;top=0;left=0;bottom=0;right=0;align=left;spacingLeft=6;overflow=hidden;strokeColor=inherit;fontSize=16;" vertex="1" parent="1">
          <mxGeometry x="816" y="1162" width="254" height="38" as="geometry">
            <mxRectangle width="140" height="30" as="alternateBounds" />
          </mxGeometry>
        </mxCell>
        <mxCell id="z8SM-cveNV6kDbXJa2zM-73" value="" style="endArrow=none;html=1;rounded=0;" edge="1" parent="1">
          <mxGeometry width="50" height="50" relative="1" as="geometry">
            <mxPoint x="815" y="1210" as="sourcePoint" />
            <mxPoint x="815" y="1160" as="targetPoint" />
          </mxGeometry>
        </mxCell>
        <mxCell id="z8SM-cveNV6kDbXJa2zM-79" value="" style="edgeStyle=orthogonalEdgeStyle;rounded=0;orthogonalLoop=1;jettySize=auto;html=1;" edge="1" parent="1" source="z8SM-cveNV6kDbXJa2zM-77" target="z8SM-cveNV6kDbXJa2zM-78">
          <mxGeometry relative="1" as="geometry" />
        </mxCell>
        <mxCell id="z8SM-cveNV6kDbXJa2zM-77" value="" style="shape=image;verticalLabelPosition=bottom;labelBackgroundColor=default;verticalAlign=top;aspect=fixed;imageAspect=0;image=data:image/png,iVBORw0KGgoAAAANSUhEUgAAASEAAAAiCAYAAAAQ/m8BAAAMUUlEQVR4nO2cf0wUZxrHP28rpyK/ilYqFhBR4Chie1pEC9RaNEWJSnNtjKceWE3Vq70m9g5zLXpqcymNJJfTKle0IP6ouZpDGxSjqBXQQ6pt46EVLCK7CqKgy0qlHtq5P2aXXZbd2QURFphPQsLMO+8z77u7853nfd+Zrxg/fryEioqKSg/xRE83QEVFpX+jipAZs9JPkZ4gWrcfJi7mxtZEfhZhNG59n/rE4TbrChFG419jeegXS/3ysMfWxo60qbP1nKEvInQF+/atIFQIhQgqfYEB9g4QwoPlWdEE7Mkn5UjXjNweR0zl8/kQtjcZ9x1plByyfr7Qd79gLR8RmWcqH1Bzx/BfPQPqoMXs+J+Xv48uwrBRV8rT6+rtt2NSIjr243mmfRuECEO3ZSbN7Uoq8Vqxn0GSZLdNSvS2vkiXtpBVfYqcjVVErsq32x6V3otdEeoPiNAVfLRQy7rIw+0L6xpwAR4CLjW3zAraXlBCKGcMQgynKT6IZmJwKy3iScmKGNaV8vQ6G2UOtckOvawvh97/iGmli1gZephNl9Spy76KUJqYDlkay/Z5bhZ7m9izrIgtlyXE2BB2ZwThbyg5lWbKbCzLNHuLmZ+ptxvTZkNFOJNOB3N311CCFwyVa+3K4uinda1l16fkopUkRMhU4rK9uTQlF/2KJUwzHG+igYqkbVwol883K/0UydWL+e0/yhU+qrb8vDwRMtpeuLq1w3DbDncS6hm29aKp7X5h6N6KgvwsvJjLrXhw276fQVpTf21mD45ezI+AM/cl9N0vyAnIaZcNibh0Dq2KpSQ9knUFqkD1ZhQzofLMQmK2WR86CeHLxxlu7IzLJ1+S5O2CGFZUyWLy2qIgtGn5zLcYbinFtE8wwQF55E4uMwjNbJ4r2MbFCts1Gj/NZP8W28MxIeKZFqvh5EKFIFYJQrdlFVCJVzbokoKgrhRzeRViOM3LEmjiR9y2ZzFIKyGRy9M1YTQlJFNPCU9l/GC6KLtBcHpbX8qPFKHZ+QqzxGEOdvvnotIddH44NsYdP3z4oCCeD1p3NlFt+O+KpokPUuIpjvme6NSaR2ymkQrOplww/PsDNZoo3IOAjupHO7RccTwJMtB2CDOiVM4ezJGkmwza+jmDLGpK2osM2XqRIZYhfSK5tSXSYudt3P+WxRDt47wAnbgv5VVUE8PoEOCS2XkLVhFf4HgYFeel8yIU6Ia/tpK3kisot3KHKs8sJDoTxIwJFB97Hk53pRj1PSTpIp7LL+LZ0w3pAvpSX1QeP3ZFSJL0VGkhOsAd0JsKjtZyKuV5Fk+vIOWIQv0j54ipCmF3xgjiRS35kmQ7pgGHxvvxLxHsX8HZ1qmCoXgEg6jwIWx9FG5m6ZEk1aGvBt/A4UCdlWB+7e609jEOYUC+w5e078ekRGqTghSjDM5Ox4u5Dh1nbSWq3Tk7NVfinH0BICSQALQct8hUjf289uVCln7eoS9OxclwKBM6nFPJwoxoiueBaRK5htXL3NmdEU9xiuFAQ2ZUgTvLs6KZ72eKcSpNnjtSjimXB/kH2GhJMBNPpzARME4uayUJKOOHXZOZlp1CMNC0q4TaBd5tal7bXkJodjKJC0x1L5RLSFI+xws/JHlGMJsuOT4mG7R1I8+YbQsRhs7iGOlMLs+csR9LwrHjHOJqNdeAqJdmQUGeQ1Wcti9AyIwY/Atz2s8HGfr5rN8YOnj3UHEyFFfHnAnLFbAujR26gi93jiIrMqXTk59KK0rdiRAJrDm0Fh5h1ch5+hLPxtJFXF04v90SvRChJH+2k8n/UTOh3o4qQgZsLQX3JsYs3semNwL6zBBlVvop+QFSi++kr/Wzv6OKkBmz0k8x7UQ0q/J6xUfSpxEJn3DmlRO9+qag4hi9RoRUVFT6JuoLrCoqKj2KKkIqKio9iipCToYYe5+lx/S8PqNrLCzCN+hZfUz+62xMS4uT/kRvt3dRskRxFrsU+1YeQ+dyY3Yc/zNua3J49ljpI51UiGfRz11Ny/mVeFc695SUEKG88PcdhNesJyftYE83xypC/MLLWU147/Hk3xbv4pWlenDBWN6J2NYsTlR7F+gLlijOYpeiKEKyAEXg+tVKfBqcWyweG4HT8fcF/TeV3XI66fJAMl8dCPT8561ocdLH6Uv2LkqWKM5gl6K4OmYSoQ24W4jQgwlruOF/nmf2H2CAJLVmN/c0H+Nz7lq7DOpX5+X9DyasoTaibQoruImn4RyW9YYUytnSgwlraOA8LhFx3NMV4KmPQ+dvKlfspDGb8TXuKaL4zT9xRZLwXvAlCXOqW7dHp5wh2ncXee9dYfy/1uBnGaxmF3nvbea2jR+FEA9ILGjh9t5fiJr3EICGvW5kZsoj3/ANeoI1Axk67z6ywYgLeXGulEkS4Rv0JEyR41SkmbIapZg+S38i2bDPxJOULHPj68vG+u0zJXvtBOsWJ85k7wIgZr7O3NTgtjWNFi8hU4nLjmp1A6jdIGc9nn9Y2u/sXZSeg+tpuxTFTEhq2M/Q8xHUzt5Eo66gVXAAXL49jGvEazR7H8C9AfCeyD2v/+Kx/zoA956Pw6VwJT4WAjHg3Hr8v7U+HBMikobZPnhkr2SwJMnbSanc1W1gMNAS4YNHdg4kLeKe5mNG6BbT4DUSuGazD60CxC7y3tzMncB3mJO2gOg/z6Tqk0pGvegPNYXoACFmETAROHuF29JBTrxxsJ1IOUYLUf6ufPzqAMTY+yzJaGbq1yZRCH4JsuI8qTMIT/B0KDtib+hkFnNGMykp9wnf5kpZ5hDStlkbjjnSVhsxJcmmxYkz2bsIEc6k1KFUJKVxoVySBen3tyndclMuy/bm0pQ02WNKhDPp9BKeq9zGhX5o76JkidLTdil254QGnFuP3zk586lNikO0ilEpgzWL0I8aiXvDNVpGRcD5zxlsFCndTepjN3FvVAfmkLx9aWEcPyVtat0luGl6G1vzHa5AMzdxvXodRtkP+dTvNhDuq6EsRc5eRNUVGgEPAILw9AX9gaNy2ejReALakkPyuUVoG5FyHBfy1rgAEvzowmXtfbwDgctyacWeQdQZPqeyVA/KHBIMs5hVT9DALx1qUedidtDipEfsXWwQPAz3Nu8aAjRw1+EAfczexYYlilJZd9mlOGzlIWcwkTQkLUI/+gDeleD6fQH62Ik8+NYXfUQdHtnX2xzvdw5E0Ntokhc5NqHt5UOLroARZhmXkQcOCI7VkCP9gSJ0VYYdgbLQ6K9XQuB0PIFGrfxre2pKLB5o0GiNtduKlIodutneRZLKuF6UwETDi8vykCqXRklCBHnjpinh+LyTNPbS766/WKJ0zE/I25cWbuJqSAukhv146NfQ/Bsf7mm+w9vKly1V/hN/3VxuzH6BZvENgyUJSbrGAD3csxxKXfkO11iTyHUUa2NY3XUNTAzAKxBEVSgv/HEBHhRRvLscYpe0io54eSMJc6wLVkfO147p94nycyHvaMf74yiS9AT1Whgb8JCuferCusWJs9i7iJCphAaUcHyKFaHJr6A2NYFfx5/EkNha9KH/2LsANi1RlMq6yy5FeXUs6G00sePa7BtSuLLNJLXr1To0seMYUviZqZ5hklrn1bbeYLMfiuv3Behnr0YbYT4xXcrQr3y5MXsT2lhDLMPwzxGsWYDc2Z1K2Ys7CE8rIRzkieU3DUOzwhNo31ljKCuieHMR0e+YVa46iqZmAeFzdrBoDu0mpW1bjrSQUNBIAmCcJC6zczc2Th5HGWfCUxpZnSJPUOc6IGAXcgYyOaOJ1fNM5zz548NOx7RnceIM9i5S+ddcql7NtNNRZnsrODslF61UxpmkYcRlp5CYaiiyyIz6jb0LCpYoSmXdZJfyyO+OiaC30UbUtZm07s8YV50qDCtevZmusDh5nMgrYxhER26f3yerCa2WV8ceKXafsndRskTpebuUR8rdhYikIXYcrudVAeqLSJe28OFOP9ZufK2nm+IQQoQzMgbuVt185Fhd0XdJuojnXwt5UlvYYwIEMHPjh8QU5lh9DshW2ZjF+zh0qHv8mjqdCTW/upl6f9PzPyoyfSkTMuKsFifGp56D/U37jM8IdRXO2ndHUbJEcRa7FNXKQ0VFpUdRX2BVUVHpUVQRUlFR6VFUETKjN9g2KNGR9na2nrPbU6j0Puxbeai2DTiTbYPwi+XWXyJ5AFg+vq/UXiWcsZ+dtadQ6X38HwUV8q0fwHypAAAAAElFTkSuQmCC;" vertex="1" parent="1">
          <mxGeometry x="59.99999999999999" y="1460" width="340" height="40" as="geometry" />
        </mxCell>
        <mxCell id="z8SM-cveNV6kDbXJa2zM-78" value="" style="shape=image;verticalLabelPosition=bottom;labelBackgroundColor=default;verticalAlign=top;aspect=fixed;imageAspect=0;image=data:image/png,iVBORw0KGgoAAAANSUhEUgAAACkAAAAQCAYAAACLFVaTAAABNUlEQVRIie2Vq27DMBSGv057jGkkzxAp3Cy8KhgKCQsyKDvALCBozCRoIAoPM25eItI05T02sG5rLl2dqtpF6o/s4/9I3znHlldhGL7yx3Xz2wA++gZSITYhCBKsqJ8jmtHtx0JJg472m74mS19OZytBMBg3e4g0mmgSbyliw2zKKchp8qnuBSSbiIiEwJV0c5a+JkuPnJ0HuUCBQrYbqGJiBGuFKje4Mc3dmsdmPYydAX4AGaGbBk1LUYDWEfQ1T0M6lGzZsKPK0z2UIX1WJA8WS0Vu3BfA5Ts5HLdzCrH3I3uHM+n0PnWO0jjKcXyuk/TUWUq5gPy8cXvJYeIlz+O4ZsYN79VWU7cSGj19r4dqixiDp8+zhk9IZ+LRGBUydjuDX3N8fX76Fz/O6vp3X0hXyEvpDQTDcN/+ngCPAAAAAElFTkSuQmCC;" vertex="1" parent="1">
          <mxGeometry x="180" y="1530" width="66.63" height="26" as="geometry" />
        </mxCell>
        <mxCell id="z8SM-cveNV6kDbXJa2zM-82" style="edgeStyle=orthogonalEdgeStyle;rounded=0;orthogonalLoop=1;jettySize=auto;html=1;exitX=0.5;exitY=1;exitDx=0;exitDy=0;entryX=0.5;entryY=0;entryDx=0;entryDy=0;" edge="1" parent="1" source="z8SM-cveNV6kDbXJa2zM-80" target="z8SM-cveNV6kDbXJa2zM-77">
          <mxGeometry relative="1" as="geometry" />
        </mxCell>
        <mxCell id="z8SM-cveNV6kDbXJa2zM-80" value="put(담기),&lt;br&gt;get(한개 가져오기" style="ellipse;whiteSpace=wrap;html=1;" vertex="1" parent="1">
          <mxGeometry x="160" y="1360" width="120" height="80" as="geometry" />
        </mxCell>
        <mxCell id="z8SM-cveNV6kDbXJa2zM-88" value="" style="edgeStyle=orthogonalEdgeStyle;rounded=0;orthogonalLoop=1;jettySize=auto;html=1;" edge="1" parent="1" source="z8SM-cveNV6kDbXJa2zM-83" target="z8SM-cveNV6kDbXJa2zM-85">
          <mxGeometry relative="1" as="geometry" />
        </mxCell>
        <mxCell id="z8SM-cveNV6kDbXJa2zM-83" value="" style="shape=image;verticalLabelPosition=bottom;labelBackgroundColor=default;verticalAlign=top;aspect=fixed;imageAspect=0;image=data:image/png,iVBORw0KGgoAAAANSUhEUgAAAMAAAAASCAYAAAANKtEjAAAFm0lEQVRoge2aXUyTVxiAn7NhgrEo8wfUDJirK023DJMZRAUyiTPrIIskW2KIEMCZCMm8waRL3MZYjBmLvZkRyBDLAH+SmcCFowSZZkgdEJfsQpF2Q4Q6WCfOik0wmebbRQstLf3hp1Cgz9X39Zzznvc933nP+57TI5KSkiRCCCHeYsdNBX/tasQsBUe1TK2BjOuplFwJKdPDuCGyvqVrz3WSS/TB6yPUHCBMmPnkpYVWIEyYhSTsAGGWNcvSATK1BrRZYuL9RXYhf1dm80yoeFJ5jJHsGK9thVDx5Kt0XsSlM1KkCpqO09Fppu3myxZf+NJXKIu5fLkYpRA+JMyOiInOxGqKdKkkXNCjaZ2bbUEwZPruLxbVpQKifiins3nq/pRHL1LKCZJdNsARQ48dTyNEWOA/l/rPio5hfdvxYulmQ9mIfz12ZGOliTVdnjoIocJa8QFjHiV9RBc3EenY+PvSyRehaIsQMdhK83gaCytrtZNk+dJX6q1AN2Cg7lR/0DbCEf6rLB2EspgTuWbKkls8Cy2PWAG8AFYMPXQpcP+YvldKIWKwqeWMkYas+wYvT3WSZelmQ5mXsoB08kMI2WJ3khQiTtYRdSiP59PSF5qPnSCjO49PlS2c7p37RVQkJSVJiYfTqTkgcyuyceHIDSr+kBBvJHK+Sk68o8RQ7lzR3csGL3WQUz2KP5leFXIcgz5tWIfi4Dp7qwYdV89YPI5IReK77K1dS++uRkaLPyHDUd/JI0z5Z7ljtPeXqTVQMFDIR98ZAx6gZ0XZUDV50lhL1yOrgcdZI6yv7HHqHqfCeigF9Dqi2c9DNchqmog0O+31umoG6hSzYCFtGY8Cz/XaKaOJL5RHL1KXUOcRBcReLc0l6XRqkylrm9m4RQAYq9tJOzt1uiLEZr6pklG/V49ekuzvbWkU99sn8vt5cszlenLcUhxfMv2jQJFwhcadtx2T/EPebDtLj8l7iydnqmmq8J4CCaEmI32QX3J9CJkSOdaKEqCP6Fqw5svB0o2rawsRw9iRLGz8iaxGR6RZQqKRDUMqbFkFjNDJK1V3nRNiHib7UrLF2HqDwfo9ZIoWfprjfvynQFujiCOW421qjk/8aGPA8XRv0MZxjZqOtN9J/WJojtQycUtzx/F4l6HBFKLkwHTnrgdm7gW++DuYnDZs6ravmq5I0j9EVp4j0q2lZO5hVWUPq9xFxibzsCLZ7cd/iTqpY5U5mE6xSG0x9jNAGq8nAr0uOrWVoG6bnWj/DrBFRry5j0MFJoxTeJ+xup3UahD73qHj521wcy4dYekhST2sKephzUIrMgcsBVsmHECSRuk3Q2pCFDDqrHF1GINmG4XvmdC0ehcktf5GWn8i56s2oRbD6CXJu0wHAeVw6t0o4k3cmkj/1rFaAcIUi+rrFGQuYUGSLIwOwOYtMYBlCmFxHquIf8bTBrCvbJ2eduzIZjhf7lPKylot0ewPqF4gOfLM8t/QtMUviVtIwMw1t+g9PgYPfszl8LlpfdQJJkWAlro+cqtS6TgAzg3rEJ8dieJ8lZoOjaOiIyKYiKJIl0pOnFOGody+V/At014uj0/wopaC7Tc1bAfGN7L2e0G3uduwk4xaDQrA1tDJ8MG1k1o+qOlEWVtA9kFn2ztGCUnSc639cwr2KTjdG3geFFl5io0u70KosLrVkboa2djlX5ZEYPUC4v4AD4CU3ZnQdiWgJgthi8dGOb+EsfzpOUfivjTi2+s883/HGLwat5VprmpO/ULtLlAwL8MJZTE/1r+GLlkz482Ur5OT+USILL5sLoVZnICEii2+EELNqe487ufmeByDCqGk4Pt6dv468wiwrBwAvB+pLSa2Fl7m9McJswr9i4VMrcH+x6Xb95qrMVh2DgDh69CLhfB16DBhgsyyvAwXJsw4/wNluUEfUMwmhAAAAABJRU5ErkJggg==;" vertex="1" parent="1">
          <mxGeometry x="79" y="1613" width="262" height="24.56" as="geometry" />
        </mxCell>
        <mxCell id="z8SM-cveNV6kDbXJa2zM-85" value="" style="shape=image;verticalLabelPosition=bottom;labelBackgroundColor=default;verticalAlign=top;aspect=fixed;imageAspect=0;image=data:image/png,iVBORw0KGgoAAAANSUhEUgAAAC0AAAAOCAYAAAC7IpUCAAABWklEQVRIidWWrW7DMBSFv057jG4kz1Ap3Cy8CigKMQsKCDMwCwgqMwkqiMLNjJeXqDR1eY8NtFPb/DRptN/DfO1777knR44Xq9XqnX+Gh98mMAcjpAXKRHhehFHiZxhNwOPlQihL4p8WTUUsD+MVhEKh0a53E2UT/E68Jg805xSPyGxZL6HOg4FaA6S7xcbU9YhCH58IzxXs+440FbEc2Dv1UDbkLY6p0i1PIx17SN8BT6DSEMqAAIUxijLTuDa75ZqtXV/HrgZx6MABHtHE1i3SPom1JNTkOSSJD03F7potQqWEvFBm8kRSI18F0cZgKMm0Oys7qvT9uGkP5wTKPLdS9jgt6dhu7yi0o2jH+5SmoYolxcxJ5ttjEj4//ddiwB5wVKPsZgiFTbr3wSXqPEAz8dyMmRa3/4hHe+wySDcH5JwOo+i/Fm8N9M32mIL7LTSi9N/Ev3x7fADqvIYPyZ3LXwAAAABJRU5ErkJggg==;" vertex="1" parent="1">
          <mxGeometry x="173.57" y="1690" width="72.86" height="22.67" as="geometry" />
        </mxCell>
        <mxCell id="z8SM-cveNV6kDbXJa2zM-87" value="" style="edgeStyle=orthogonalEdgeStyle;rounded=0;orthogonalLoop=1;jettySize=auto;html=1;" edge="1" parent="1" source="z8SM-cveNV6kDbXJa2zM-86" target="z8SM-cveNV6kDbXJa2zM-83">
          <mxGeometry relative="1" as="geometry" />
        </mxCell>
        <mxCell id="z8SM-cveNV6kDbXJa2zM-86" value="put(수정)&lt;br&gt;" style="ellipse;whiteSpace=wrap;html=1;" vertex="1" parent="1">
          <mxGeometry x="270" y="1510" width="120" height="80" as="geometry" />
        </mxCell>
        <mxCell id="z8SM-cveNV6kDbXJa2zM-93" value="" style="edgeStyle=orthogonalEdgeStyle;rounded=0;orthogonalLoop=1;jettySize=auto;html=1;" edge="1" parent="1" source="z8SM-cveNV6kDbXJa2zM-89" target="z8SM-cveNV6kDbXJa2zM-92">
          <mxGeometry relative="1" as="geometry" />
        </mxCell>
        <mxCell id="z8SM-cveNV6kDbXJa2zM-89" value="" style="shape=image;verticalLabelPosition=bottom;labelBackgroundColor=default;verticalAlign=top;aspect=fixed;imageAspect=0;image=data:image/png,iVBORw0KGgoAAAANSUhEUgAAAVkAAACECAYAAAA6JVieAAAgAElEQVR4nO3df1DVdb748ed7kw2RX2FJooBKAktEtbmIBmwZOpGMyc5u47jqBctJudndGbuLc0tds9kRR2fudy1lFw1Crb635mo7Jo6SGaghm9V40QRD4hyEUNDDiZW8ap/7xzmHczi/UY5w8PWYcYbzeX8+78/7/TnHF+/P+/3hddTDDz+s0Q89T71JRwz8/OR6Ik+09OfQYU2p6+RWXqMhK4g6rV+XdMiavekoMz5NZ8XeodUfpSJJej+f+Bjrtu6dpRx8q33AzjFU++4tlbOB409+SuqKin6ViYGn+htkhRBCeO9ng90AIYQYziTICiGED0mQxTT/tilH9b6+kbuY77fm8qNKomvrK3TkjnF5rFJJdP0pkxvRmXQsS7odzXXQn/be7HG3q5/u2qQSC/jwwwISlXJTgxBDywhXBUqFsqw0ndh3Kyg8MDDTtr6o0/35TAskIe8UUbPP+fkSX36PNbxBqs0Cx4jWy+afOhjRDtds9v9x2SsYUswv2mu5b22H53ZMzcXAHsKOO7ZBqSQMW56hx6GkkfCCPQSaF9FUdCYX/yOV6wBcIuTPpYzSax7b685Q7Ke7NmlntlDafJTyjU2yaCP8hssgeydQiQW8sVDP2tT9joXtnQQAN4CA1os2BXbBT7kf1Sk1hu7sOHrIILi2mrucPXnQXst9a12UWep4fjTBBZsI1DRu5C7m4vMZBNoe47K9HgyhfnpuE+x75Q1m1C5ieeJ+Np+RNVsx9Dl9uiBhSSbb5wXbbe3m3aXVbDmroSYnsKs4DssTNEeLrCNT+zLd+0eYX2L0WKfLBqpkph6L54edo4lfMNp0lPlxHUvZ+em70WsaKuEJssoiODN9N8aCF5hh3t+qk4a8bZyqN51v9qaj5Dcv5rd/qffiUpn8uCwXivsGH8OaewneDpdzOrh362lr26OTMDyfBhWlhDOXi9kQvH0PgXprf12O8NwEJDU1l7Y8+gTBgTYU+ulK4svvUR5b7jCaVVmb2Lcik5pNqaytlAAshganI9n6kioytjm/tVcqivXFwezIqqBC00yvKzMoaDIFy6cXxaEvqmC+3XSAuzo9iyc+di+7p9WZA+kcHqzcxukG10d0vVXCni2upwuUymZGpo7PFrqpxKk4DFtWAI2El4EhLw7aa7H99aHUGHqW5tDNtwRvLyVQr6Gxm/tak+jOyaeDGu4p/sZmFNq/QHM96h44WeOzAGsy+P10pf5ANbodTzJb7efjYfJMshi++j9d8EAI0UTyamU2r/Zu7KbZ/NM5XTevFmZzJONr0le1DlAzG/ii8JT5x29o1aUREgf0Nz460HPO+0GsWd/b6LG1phGeLU27QODWtwm0O1LTn2bU1tOMsq8yMpWLW1LtNvadd7VQU3O5OOsy4QXf9Lfh/TS4/XSrvolmMpiUAJyxOW/lCrIrva9GiNuh/0F2YjAx+kaez2+g3skoor6kivQSULMe48gnj8CxgQy2w4+mnSZs2WnCvNj3Ru5ic4D13TSBr/Snn0IMJy6DrKYZadJDemwIYLQWHGzjaOEjLJ7ZQOEB1xVrB06Q0ZTAruKxZKs2KjTNdZ1mXs2pZT9OfEwDX/ROx40mNB5UQyRJr6cRbDO81bR2jM0QNXEM4OxPLqMdRkOeWW6jwTQKq3Hsx9Rc2vLi3NYysmwT4cz1ar+w49otBdibm6scnH56JWEiseg5ZHcXYulnywcLWfJ2v95UIXzG7Uh2f3kjC4vTOTIPrItUraxcGsKu4myOFJp3NI9sGwhhWWk686OtdRwtMs3duq/TVB4XE+uiJfFMOVbIFMCyeKXXNKCOb3ZOY0ZZIfFA984a2hZE9DmyZXsNiWX55C6wHnuqXkPTKjhU9Rr5s+LZfMb7OYPArRu53+a1UkkY7PbRju/m/uOe69Lwbj8VncnlWRFAhE3g60dg+q6ZFiDt8dlQudfz/gxOP72VMCuDmKpyx/lYcz/HRz9AP39zCuEzQz53gf0TBANad2IBH+yYQGlq4U0voLhbdR8qlMph9b41cAur7kOln0pls7F2Ed8tnO/wCJdSieT/bQfTPpeRrBg67uggC64fBxouHlj8IZt/FztsbqFnbzpq+uMRu/druPVTDB93fJAF/09rd6eQFH3CHw35ICuEEP5MEsQIIYQPSZAVQggfkiCLf6Q6HE7pDN2RVIdiuJFUh36S6nA4pTNUagzdaxbxQ6Tjs76S6lAMN5Lq0A9SHXpukwdDqC+mQJzGiD+XE/L8InN+XG/bK6kOhf+RVId+mOpwoAxmXyyj2esV/fhzWjNJdSj8iaQ69MNUhwPHP/siqQ6FP5FUh36W6nBg+WlfJNWh8COS6nCQDacUgMOpL0IMFEl16CepDj0ZdukM3ZFUh8KPSKpDP0h16BU/SWfosDiWt4KevP4FYEl1KPzJkM9dIKkOvW3H8Eln6I6kOhT+5o4OsjA8Uh3eSWn+JNWh8Dd3fJAFSXXoLyTVofBHQz7ICiGEP5MEMUII4UMSZIUQwockyAohhA9JkBVCCB+SICuEED4kQVYIIXxIgqwQQviQBFkhhPAhCbJCCOFDEmSFEMKHJMgKIYQPSZAVQggfkiArhBA+JEFWCCF8SIKsEEL4kARZIYTwIQmyQgjhQxJkhwg1+SpLPjHym1lqQOpLXmdk5Semfzdb5+xNR9mUMzDtEY7X80buYr7fmsuPKomura/QkTvG5bFKJdH1p0xuRGfSsSzJZ2101yaVWMCHHxaQqBw/E+7K7nQuvxJcjZ7L93Oy+F/La1054z+pvaWTKTUe49yVXDu5nIjGof2tN0ol8uh/vkNy6+uUF3082M1xSqmf+HVpNxHvhvHfB/pez7pVoZyylN9E3Ykvv2f6wkKb7z1TKpRlpenEvltB4YGBef98UedQ5Ox6jmi9bP6pgxHtcM1m/x+XvYIhxfyivZb71nZ4PIeamouBPU6/Wt3hq9h7NRJesIdA8/fnuWuTdmYLpc1HKd/Y5PA9a+7K7nROg6wpwKYQ9PflRHYO3w++WxNnEhMFxn803pbTaWfvpuSpu4HBv94qsYA3FupZm7p/sJsyLLi9nu2dBAA3gIDWizYFfYOfUu5Hr0qNoTs7jh4yCK6t5i5nXzraXst9a12UedUm2PfKG8yoXcTyxP0OX8nuruxO5vSLFK1Bdh0hdkH2+mOr+T7mJPfv+YgRmtY7Or2iW0/kiRaHEfDPT5q2X39sNW0pfW+HFBcIM5/D/rhRVabR7vXHVtPJSQJSsrhiqCTMmIUhxlrutnOW0WiUZUs1R577d85pGhELPiDn2ebe15MKj5MetZO9fzjHw/+1mmj7ylp3svcPb3LJxQdUqevkVl7j0vs/kTbvBgCd7wdTUmKakUleZyRedzej511lNAAB7M0Kok7TSF5nJGe6qZ6GIuuo1F2dkUv+Sb55m9Vd1CwN5vBZy/GOI11P7QTTbW1+82J++5f63m0JSzLZPi/Y7nzdvLu0mi1nNdTkBHYVxxFjLjlaZB2Z2pfp3j/C/BKjxzrdid6wknHNNYQsSMNUQwNfmL/RWCU8QVaZZTu0rSuiZp9G2L8uIZWz/LAgjbG6Ghqa04jPsJa7O25G5lkOzfuMLvP7H71hJYnNpRx8q93lce6upyc/LsuF4r5B1rDmXoK3w+WcDu7derp3XxWdhOH5NKgoJZy5XMyG4O17CNTb3oW4GMl6G3htJL78HuWx5U5HrK7KVNYm9q3IpGZTKmsr76wA7HQkq3XuYfTJFNrmbKbLUNkbUAECvtxPUMrT9ER8REgnEDGFK+H/Q+ie8wBceSSLgKrlRNoFwBEnXifmS+fTBUql0jknktCy5YzUNNPrvFX8YFjHSOBaSiShZeWQt4gruvWMNSymM3wc0OKyY70Blp3sfe5NLk98iWeLFpD+x2do2tDIhF/FQGsVBkCp2cROAb44xyXtYz793ccOQdg710iLCWL9UyNQk6/yQnEPTxy2Br34x6E0K4x2c2CNnwl1Bzzd2tvUOauHwsKrJG8Loq5kFEXbnE0XeNNWF3VqGkplMyNTx2cLG/ocUV9SRcY257f2SkWxvjiYHVkVVGia6XVlBgVNpmD59KI49EUVzLebDnBXpzfGZsKh6UV0aZop6GZDS0UyU8siODO9yBRwVTJTj73Ag43baAGCF0RwZvpeOJZDVFUph5rnkDpxDCrhF2SVTaY1r4hT9ZaAazru9JbPaVswjfHxn9FVb/qa+nEZDZwpvGCq38X5TtW7vp6exWHYsgJoJLwMDHlx0F6L7a8kpcbQszSHbr4leHspgXoNjd3c15pEd04+HdRwT/E31gB6EwHVmfoD1eh2PMlstZ+P7epyV3ancjknO+LE60SfMI1c2/KyUL3BtpaRukUYJ4wjpLOFaxNS4OTbjLQEYcMFOjI3c2VCP+ZwI6K4xkP8M29z7ybFBcIsL3RfEQT0cIGg787DBM9V3vP7dSRH6agrNI0+VdM5uoBQAOIIiwLjRwdNZZMmEQboa/aZzq0S+wRh7wWwd3UAoMG3AZzVXyViInDWVNrwbiDt5utUtyqUOq8Cok2dTT+jk5/61aKbq1PPOe8HXfBACNFE8mplNq/2buym2fzTOV03rxZmcyTja9JXtd5i263a3rGOLPV/XI8eUAn3EkI8U44VMqV3z05+sPxY3UALMI5OWisvQJZpc2jWZIKrP+dUvak+rf4wZ6rTGBcHWn0d56tzSMwaw6n6dkILpjG2+nNqNM3z+Uyt69/1BOynC8bWmkaytjTtAoFb3ybQ7khNf5pRW08zyr7KyFQubkm123iJkD+XMkrfj4BY30QzGUxKAM54V6ZVriC70vtTDCcug2zvDideJ+bLVDrzFmGc9BERjRD0dSXGzClc/zIKY0o7oWXn++wffQJU3Ivo8hd5t2AWHsk1QyVjbUbMFte9CKhOqxwXA1RjaDJvmGgKpMbzjTBxJmFAl970yb9neiah6NDpLUf3DcLCg4nBxOgbeT6/gXon16u+pIr0ElCzHuPIJ4/AsYENtn3ERRCsq+lza28RlnXz1bZsryHx9V8QtgXGZ0LD6lMezzeUaNppwpadtg5cxG3jMcgC5pHmBYLMwzqtcw+hxtX0/DKSK7qviHDy4dIa/0qMYS7fz3mUHvUPRmoamtbCCCNcsb/VP/cVQZnWIN5fzuZ7DOd1MCWW8ImgmhJ59N8WEEo1R3bVQ+YLvUFV/XojOc86D8j9OZ+DmVdJiw5g78H+98dbmvYzOvQwOfYGA/s0XrTTUYqmGWnSQ3psCGC0Fhxs42jhIyye2UDhATftPXCCjKYEdhWPJVu1UaFprus06/dcXkUDbaty+EX2Z5hvTLxirDxLd9k0Hkw41TtdkJjRSet28w4N39DKHMZnQxRnqbXc/Xt1PufX0z3LdAGYRps1Dnuoqbm05cW5rWVk2SbCmevVfs6eSnAqYSKx6DnkbHTuoszyPrZ8sJAlb/frQvg9508XxL2ILvOhPttGVS3vswgW9F07usyHGFX1N+tx5kUwQ3jf40baBOGgrysxzlmJPsV24auW0X+P4vs5m9FnmusyT094Iy4m1mHb5V2rqPvVOyQX1ZAMpoWr58xTB1Wfon9ptbmsmiNvVpP+ks3BTQfRtS4g+dl3WPQsDotezs5nco2cyi5yAMsiVJ2H0Y1lcSrNstJW2MXKQtMC2G4vAvSp8ruZVtzNynnWc3727Y2brlPTKjhU9Rr5s+LZfMbxf9H+8kYWFqdzZB5YF6laWbk0hF3F2RwpNO9oHtk2EMKy0nTm26wkHi0yzd26r9PTtXbV/jqO591LVlkhuavMG80jTbfH1R+mcl0Ec8sKiQegk4a8bdbpA62d0+90MndVGm3rinpHre7O16VpHq+nK4FbN3K/zWulkhymrrTju7n/uOe6NLzbz1sJszKIqSp3Oufqsuy7ZlqA8dEP0M/fNn7P6dMFXh0Y9yL6lPY+i2J3MsuqfYP5iQF/phIL+GDHBEpTC2XxYgAMxPV093TB7aRUNhtrF/HdwvkOj2m5L0sk/287mPb5nTeSval7TKVS6cx8iKCTEmCHI+3MFl7bEc2ajU8PdlOGhYG4npp2mrA/VXGXvmrQAizAMxtfI6Oq3OlzsK7KHlj8Ifv23ZkBFm5iJNvz1Jt0xFiffxUmw2kkazF701FmfJrOir3Doz+Dzd+vp8rZwPEnP3X6fKy7sjvdTU8XCCGE8EwSxAghhA9JkBVCCB+SICuEED4kQVYIIXxIgqwQQviQBFkhhPAhCbJCCOFDEmSFEMKHJMgKIYQPSZAVQggfkiArhBA+JEFWCCF8SIKsEEL4kARZIYTwIQmyQgjhQxJkhRDChyTICiGED0mQFUIIH5IgK4QQPiRBVgghfEiCrBBC+JAEWSGE8CEJskII4UMSZIUQwockyAohhA9JkBVCCB+SICuEED4kQVYIIXxIgqwQQviQBFkhhPAhCbJCCOFDEmSFEMKHJMgOEWryVZZ8YuQ3s9SA1Je8zsjKT0z/brbO2ZuOsilnYNrjb+z7fiN3Md9vzeVHlUTX1lfoyB3j8lilkuj6UyY3ojPpWJZ0O5rroD/tvdnjhno/VWIBH35YQKJy/Ay7KxtoI1wVqNFz+X5OFv9rea0rZ/wntbd0MqXGY5y7kmsnlxPRqN1SXb6mVCKP/uc7JLe+TnnRx4PdHKeU+olfl3YT8W4Y/32g7/WsWxXKKUv5TdSd+PJ7rOENUvda61UqlGWl6cS+W0HhgYF5/3xRp/vzRZL0fj4h7xRRs8/5+Zz1fUTrZfNPHYxoh2s2+/+47BUMKeYX7bXct7bDczum5mJgD2HHHdugVBKGLc/Q41DSSHjBHgI10zEqOpOL/5HKdQAuEfLnUkbpNY/tdWc49VM7s4XS5qOUb2widUVFnzO4KxtoToOsKcCmEPT35UR2Du1g6DMTZxITBcZ/NN6W02ln76bkqbuBwb/eKrGANxbqWZu6f7Cbctu57Xt7JwHADSCg9aJNgV1QUO5HdUqNoTs7jh4yCK6t5i7NyXveXst9a12UWep4fjTBBZsI1DRu5C7m4vMZBNoe47K9Hgyjfu575Q1m1C5ieeJ+Np/RvC4bSOrhhx92qN0aZNcRYhdkrz+2mu9jTnL/no8YoWm9o9MruvVEnmhxGAH//KRp+/XHVtOW0vfWQ3GBMPM57I8bVWUa7V5/bDWdnCQgJYsrhkrCjFkYYqzlbjtnGY1GWbZUc+S5f+ecphGx4ANynm3ufT2p8DjpUTvZ+4dzPPxfq4m2r6x1J3v/8CaXXH4YrpNbeY1L7/9E2rwbAHS+H0xJiWlGJnmdkXjd3Yyed5XRAASwNyuIOk0jeZ2RnOmmehqKrKNSd3VGLvkn+eZtVndRszSYw2ctxzuOdD21E0y3yvnNi/ntX+p7tyUsyWT7vGC783Xz7tJqtpzVUJMT2FUcR4y55GiRdWRqX6Z7/wjzS4we63RFqWSmHovnh52jiV9guprdO0s5+FZ7b9n56bvRaxoq4QmyyiI4M303xoIXmGHe36qThrxtnKrXXPbdkx+X5UJx3+BjWHMvwdvhck4H9249bW17dBKG59OgopRw5nIxG4K37yFQb3vH4GKE5yYgqam5tOXRJwgONH/tZ+LL71EeW+50xOqqTGVtYt+KTGo2pbK28taup9ORrNa5h9EnU2ibs5kuQ2VvQAUI+HI/QSlP0xPxESGdQMQUroT/D6F7zgNw5ZEsAqqWE2kXAEeceJ2YL51PFyiVSuecSELLljNS00yv81bxg2EdI4FrKZGElpVD3iKu6NYz1rCYzvBxQIvLjvUGWHay97k3uTzxJZ4tWkD6H5+haUMjE34VA61VGAClZhM7BfjiHJe0j/n0dx87BGHvXCMtJoj1T41ATb7KC8U9PHHYGvTiH4fSrDDazYE1fibUHfB0a29T56weCguvkrwtiLqSURRtczZd4E1bXdSpaSiVzYxMHZ8tbOhzRH1JFRnbnN/aKxXF+uJgdmRVUKFppteVGRQ0mYLl04vi0BdVMN9uOsBdnZ7FEx+7l93T6syBdA4PVm7jdIPrI7reKmHPFtfTBa767lkchi0rgEbCy8CQFwfttdj++lBqDD1Lc+jmW4K3lxKo19DYzX2tSXTn5NNBDfcUf2MzOnM/wrN3PeoeOFnjswBr4p/9rD9QjW7Hk8xW+/nY7jh3ZQPF5ZzsiBOvE33CNHJty8tC9QbbWkbqFmGcMI6QzhauTUiBk28z0hKEDRfoyNzMlQn9mMONiOIaD/HPvM29mxQXCLO80H1FENDDBYK+Ow8TPFd5z+/XkRylo67QNPpUTefoAkIBiCMsCowfHTSVTZpEGKCv2Wc6t0rsE4S9F8De1QGABt8GcFZ/lYiJwFlTacO7gbSbr1PdqlDqvAqINnU2/YxOfupXi26uTj3nvB/IwQMhRBPJq5XZvNq7sZtm80/ndN28WpjNkYyvSV/Veottt2jgi8JT5h+/oVWXRkgc0N/46KCffQfsb6PH1ppGeLY07QKBW98m0O5ITX+aUVtPM8q+yshULm5JtdvYdz7SQk3N5eKsy4QXfNPfhveTn/azvolmMpiUAJzxrkyrXEF2Zf9O44rLINu7w4nXifkylc68RRgnfUREIwR9XYkxcwrXv4zCmNJOaNn5PvtHnwAV9yK6/EXeLZiFR3LNUMlYmxGzxXUvAqrTKsfFANUYmswbJpoCqfF8I0ycSRjQpTf9b7pneiah6NDpLUf3DcLCg4nBxOgbeT6/gXon16u+pIr0ElCzHuPIJ4/AsYEMtsOPpp0mbNlp6yDDjRu5i82Bx3fTBL5yp/TTY5AFzCPNCwSZh3Va5x5Cjavp+WUkV3RfEeGk01rjX4kxzOX7OY/So/7BSE1D01oYYYQr9rf6574iKNMaxPvL2fyJ4bwOpsQSPhFUUyKP/tsCQqnmyK56yHyhN6iqX28k51nnAbk/53Mw8ypp0QHsPdj//nhL035Ghx4mx95gYJ/Gi3b6W1/TjDTpIT02BDBaCw62cbTwERbPbKDwgJv2HjhBRlMCu4rHkq3aqNA013WaeXWtsx8nPqaBL3qn1UYTGg+qIZKk19MIthnealo7xmaImjgGaPe67+5ZbqPBNAqrcezH1Fza8uLc1jKybBPhzPVqv7Dj2i0Fnpubc/S/fgKQMJFY9BxydofiosxyfVo+WMiSt/v1YXDg/OmCuBfRZT7UZ9uoquV9FsGCvmtHl/kQo6r+Zj3OvAhmCO973EibCxP0dSXGOSvRp9gufNUy+u9RfD9nM/pMc13m6QlvxMXEOmy7vGsVdb96h+SiGpLBtHD1nHnqoOpT9C+tNpdVc+TNatJfsjm46SC61gUkP/sOi57FYdHL2flMrpFT2UUOYFmEqvPwobAsTqVZVtoKu1hZaFoA2+1FgD5VfjfTirtZOc96zs++vXHTdWpaBYeqXiN/Vjybzzh+KveXN7KwOJ0j88C6SNXKyqUh7CrO5kiheUfzyLaBEJaVpjPfZiXxaJFp7tZ9nZ6udTxTjhUyBbAsXuk1Dajjm53TmFFWSDzQvbOGtgV9Z7pbtteQWJZP7gLrsafqNY99dyVw60but3mtVJLDNJN2fDf3H/dcl4Z3+6noTC7PigAibAKfNTB59F0zLUDa47Ohcq/n/fHTfgIJszKIqSp3Oufqssx8fcZHP0A/f+M6cPp0gVcHxr2IPqW9z6LYncyyat9gfmLAn6nEAj7YMYHS1EKfLQbcCvsnCAa07gHou7tV96FCqRxW71sDt7B67h/9zGZj7SK+Wzjf4TEt92WJ5P9tB9M+v/WR7E3dYyqVSmfmQwSdlAA7HGlntvDajmjWbHx6sJty2w1E3zXtNGF/quIufdWQDDwPLP6QffvWMP6Dhbf0eNJQ7yfAMxtfI6Oq3OlzsK7KTNdnYAIs3MRItuepN+mIsT7/KkyG00jWYvamo8z4NJ0Ve4dWf3w5krUYqn0X3lM5Gzj+5KdOn491Vzbg7bjZ6QIhhBCeSYIYIYTwIQmyQgjhQxJkhwhJdejfVMITzPx8JWnPDPz1sn8fhkoKP+Edl0FWjZ5Le/6b6M3/Wp6y/9O3/lNqPD/kvsmluKH/AVAqkV/+v+MsKpw92E1xSamfeKLMeRCtWxVKUVYwNXonB3rBku5vhV2qw4KyZygaoF8Et1KnUpE8+P/7H9QswTDX8m9D8i3X6UvO3gdTmr7fU+7kCQh3ZWJwSKpDVyTV4bBLdWhKJDOZ1ryi3qxbA0WrP8zBaYcHtE5378NQSOEnvCOpDiXVod+lOgz71yVuUxaagmlab3aotnWmjFvWILvNIch6qjN6w0rGNdcQssBSbwNfmB8hi96wkikZfc8F7lMyAqhnfsPcVfF9e29T7int4mCn8BPekVSHSKpDf0t16C5lof1o1fT6BR5s3Map+sPU7pxs+pNbXQ2H5n1Gl/m99ZQGEWBsJhyaXkSXObCOywb9PtD/cT0tlm9ccDjKJiXjM79h7qrHid6ymxYeZOqq0TRY2vnMb5j7L5eo3XLBfE09p10c7BR+wjuS6lBSHfppqkPnQrMmE1z9ee9IVas/zJnqNMbFAfWmYLr7LfPI9Vga2AVbd9rese6n/+N6vJvutknJ2HiJ/n0ZkIf3YZBT+AnvSKpDJNXhLfPDVIemkWsyU4/l8IvszzD/fr1tNK2O89U5TDEnsjFNTez2KtgL/+LdI1zmVIcBfVIdptDzy0e5ovuqT5YtC63xr8T8vZKAmEfpMT9OYkl1eC18XN+dz31FUHgWxkk31wmVtYmKin+wJsu6Kmw4rwPMqQ6VNdXhyV31EB1LKDq6+qQ6bO5XqkP78zkwpzpsuA2pDkfH2s/N3ipzuj+H85nSEkbH2t0UH2zjaHQci2e6r1U7cIKMpY3opo8lu/cz4aJOM1fX2pKyMGRi33l+Y+VZujOm8WCCaX+V8ASJGTlNm5MAAAE0SURBVJ384Gz9Mv5eQrCWuarTF1TCEyTG1nBoehG7p61n97QSJ4txzt+HXuY0fU5Huy7KLNezZHHiLfZAeEtSHUqqwz78J9Whq5SFh6lcF8HcPiPEbdZ5T7uFprZ1fZ80cJUG0RXLt9/GW1b1VhWSu8pU73E3fxav1R/mTPNK05RFL+timjdpFwc7hZ/wjqQ6HCDDKUHMUE91OByYAj69QRUgesNKEpttnj5w8z4MhRR+wjuS6lA4uJNTHQ4WpZIZlwE/NF3o3ebufRgKKfyEdyTV4QAZTiNZC0n35zsO0wz0fUbWlv37MFRS+AnvSKpDIYTwIUkQI4QQPiRBVgghfEiCrBBC+JAEWSGE8CEJskII4UMSZIUQwockyAohhA9JkBVCCB+SICuEED4kQVYIIXzo/wD7ctOnCD1SxQAAAABJRU5ErkJggg==;" vertex="1" parent="1">
          <mxGeometry x="65" y="1750" width="345" height="132" as="geometry" />
        </mxCell>
        <mxCell id="z8SM-cveNV6kDbXJa2zM-91" value="" style="edgeStyle=orthogonalEdgeStyle;rounded=0;orthogonalLoop=1;jettySize=auto;html=1;" edge="1" parent="1" source="z8SM-cveNV6kDbXJa2zM-90" target="z8SM-cveNV6kDbXJa2zM-89">
          <mxGeometry relative="1" as="geometry" />
        </mxCell>
        <mxCell id="z8SM-cveNV6kDbXJa2zM-90" value="remove(삭제)&lt;br&gt;toString(전체보기)" style="ellipse;whiteSpace=wrap;html=1;" vertex="1" parent="1">
          <mxGeometry x="290" y="1640" width="120" height="80" as="geometry" />
        </mxCell>
        <mxCell id="z8SM-cveNV6kDbXJa2zM-92" value="" style="shape=image;verticalLabelPosition=bottom;labelBackgroundColor=default;verticalAlign=top;aspect=fixed;imageAspect=0;image=data:image/png,iVBORw0KGgoAAAANSUhEUgAAAGcAAAAQCAYAAAALZmGAAAACXElEQVRYhe2ZsY7iMBCGP077GAGt5GdAymlLd+4RxVZp0lGl4CoX6Sio6NKk2iKid+fmpNPlJSKtIO+xVwSWBELi1bHa3Imvgngy/u3xjC1nNJ1O37gzSL59tYA717kHZ8A0giO1wRiD0bLjFYlOAoQISDrthsLX6xVB4jCvlzzUPDD3c9YqxtYMpDZE/uFPuWUR7vq9So0mJratjWgT4V88P+tbBCSbGV7VMdtFSFq4dD08vUUaolKJNnMCYZ3GAfXgPI7xyj2vfSLoi74gmPv4BAib0qqj3LIIr7QdfSzHZEphqVbeZhnws/Odoeu1/Mojnh7BYRBAPTi3QEj0cg6ZQqFJEk22irHnYrwZGzNrPmtMQEEaxu9Nxa6E2ZgPjOu/0NsMTrlrceYTGUNEznoNUeRDueWlYSOQesmc32Sr8DC4mPBVEjwnJGSsYnvy3bsSm4iJB3lWZUOjfJzI1+pQlgam9wxvInAN2Wg6/fGmTYSfr1EtRVdqDXGzTOhkwssKls87wvZC3cG1Gn5lX5EaE3GxF171PnC9IkjYzHDaQx/AEitbnSg0rQG6LVV/LlQDKTs23hOnzLk1f6m3htSG+X6BUm6Z817Wil0J3ydcJt2xTEC1WrK2XjHR5dqqk68VMY52tmOgRUqo0g4PA9N7Rrlz34V6DwQ2VmedSfSlEW6Ly9FOBCxnHuDVJtotO/41vV3c9rR2K3qzY2B8kt5TcF73lJ7L8c8Sh9Wv2ulxwAxFr+TJL9m/9FseOV3fFCmrbZWWH71muNNNdX0T4eeZ8+0AwOj+yWC4/AH1upW0yuHamgAAAABJRU5ErkJggg==;" vertex="1" parent="1">
          <mxGeometry x="147" y="1940" width="143" height="22.21" as="geometry" />
        </mxCell>
      </root>
    </mxGraphModel>
  </diagram>
</mxfile>
